<svg xmlns="http://www.w3.org/2000/svg" width="1888" height="1888" preserveAspectRatio="xMidYMid meet" version="1.0" viewBox="0 0 1416 1416"><metadata>Created by potrace 1.11, written by Peter Selinger 2001-2013</metadata><g fill="#000" stroke="none"><path d="M6056 13110 c-20 -36 -45 -78 -55 -95 -22 -36 -46 -78 -126 -214 -33 -56 -68 -116 -78 -133 -10 -16 -79 -134 -154 -262 -327 -556 -543 -924 -733 -1246 -306 -519 -400 -679 -435 -740 -18 -30 -63 -107 -100 -170 -38 -63 -74 -126 -82 -140 -8 -14 -22 -38 -32 -55 -18 -29 -79 -133 -168 -285 -24 -41 -48 -82 -53 -90 -32 -51 -150 -251 -150 -254 0 -2 -32 -56 -70 -121 -39 -65 -81 -136 -94 -159 -13 -22 -66 -113 -118 -201 -52 -88 -134 -227 -183 -310 -48 -82 -96 -162 -106 -177 -11 -15 -19 -29 -19 -32 0 -2 -79 -138 -176 -302 -97 -165 -186 -317 -199 -339 -12 -22 -156 -267 -320 -545 -164 -278 -381 -646 -482 -819 -102 -173 -195 -331 -207 -350 -12 -20 -26 -43 -29 -51 -4 -8 -16 -28 -26 -45 -20 -33 -5 -8 -501 -850 -194 -330 -427 -726 -518 -880 -90 -154 -189 -323 -220 -375 -30 -52 -74 -126 -97 -165 -24 -38 -58 -97 -77 -130 -19 -33 -126 -215 -238 -405 -112 -190 -203 -350 -203 -356 0 -6 27 -57 60 -115 64 -111 271 -466 358 -614 71 -122 299 -514 324 -558 11 -19 29 -50 41 -69 11 -18 78 -132 148 -253 l128 -220 6038 0 6038 0 50 90 c55 97 92 165 136 248 16 28 107 194 202 367 95 173 186 340 202 370 17 30 38 69 48 85 9 17 33 59 52 95 139 257 309 564 318 575 6 7 6 15 1 21 -10 9 -141 234 -141 240 0 2 -18 33 -40 69 -22 36 -40 68 -40 71 0 3 -8 18 -18 32 -11 15 -32 52 -49 82 -17 30 -63 111 -103 180 -39 69 -95 166 -124 215 -28 50 -55 98 -61 107 -5 9 -20 34 -31 55 -12 21 -101 178 -199 348 -98 171 -189 330 -203 355 -14 25 -28 50 -32 55 -4 6 -19 30 -32 55 -14 25 -220 385 -458 800 -238 415 -442 771 -453 790 -11 19 -28 49 -38 65 -11 17 -22 36 -26 44 -3 8 -86 152 -183 321 -97 169 -180 313 -184 321 -4 8 -12 23 -19 34 -56 93 -107 186 -107 195 0 5 -3 10 -7 10 -5 0 -13 10 -19 23 -9 19 -257 452 -774 1352 -91 160 -171 299 -178 310 -6 11 -35 63 -65 115 -30 52 -64 111 -75 130 -11 19 -78 136 -149 260 -71 124 -132 232 -136 240 -4 8 -16 29 -26 45 -19 31 -73 124 -119 205 -14 25 -33 59 -42 75 -10 17 -146 254 -304 528 -157 274 -286 503 -286 508 0 5 -4 9 -10 9 -5 0 -10 4 -10 9 0 5 -95 175 -212 378 -116 202 -216 377 -222 388 -21 38 -137 240 -147 255 -12 20 -492 859 -532 930 -16 30 -41 72 -55 92 l-25 38 -1062 2 -1062 3 -37 -65z m1077 -5267 c82 -148 95 -170 157 -278 57 -100 80 -139 128 -225 14 -25 32 -57 41 -72 14 -23 101 -176 161 -283 10 -16 31 -54 49 -83 17 -29 31 -55 31 -57 0 -2 21 -39 46 -82 26 -43 68 -116 94 -163 76 -136 87 -156 114 -199 15 -22 26 -42 26 -45 0 -2 28 -52 63 -112 35 -60 66 -116 70 -124 4 -8 18 -33 30 -55 96 -166 228 -397 247 -429 12 -22 77 -137 145 -256 68 -119 132 -232 143 -251 10 -19 94 -166 187 -327 92 -161 165 -295 162 -298 -4 -5 -151 -7 -1282 -19 -539 -5 -1285 -13 -1885 -20 -683 -7 -801 -7 -806 -2 -3 3 15 40 41 83 26 42 55 91 64 108 25 43 120 208 131 226 5 8 32 53 59 100 27 47 239 411 471 810 232 399 434 745 448 770 13 25 28 50 32 55 5 6 23 37 40 70 18 33 39 67 46 76 8 8 14 18 14 21 0 4 198 346 299 516 17 29 31 55 31 58 0 3 8 17 19 32 10 15 87 145 171 290 84 144 154 262 155 262 2 0 28 -44 58 -97z" transform="translate(0.000000,1416.000000) scale(0.100000,-0.100000)"/></g></svg>