<svg xmlns="http://www.w3.org/2000/svg" width="744" height="991" viewBox="0 0 744 991">
  <metadata><?xpacket begin="﻿" id="W5M0MpCehiHzreSzNTczkc9d"?>
<x:xmpmeta xmlns:x="adobe:ns:meta/" x:xmptk="Adobe XMP Core 5.6-c140 79.160451, 2017/05/06-01:08:21        ">
   <rdf:RDF xmlns:rdf="http://www.w3.org/1999/02/22-rdf-syntax-ns#">
      <rdf:Description rdf:about=""/>
   </rdf:RDF>
</x:xmpmeta>                           
<?xpacket end="w"?></metadata>
<defs>
    <style>
      .cls-1 {
        fill: #484848;
        fill-rule: evenodd;
      }
    </style>
  </defs>
  <path id="C" class="cls-1" d="M554.818,256.986l23.5,86.175h91.37l67.874-86.175-23.5-83.563Q690.568,93.8,634.44,50.689,575.7,5,496.081,4.99H327.7q-73.116,0-110.948,50.921L154.1,136.864q-26.126,33.967-26.105,78.34,0,18.3,5.221,41.782L285.931,827.568Q306.8,905.909,366.858,950.3q58.738,45.72,138.36,45.7H673.6q69.169,0,110.948-50.921L845.9,862.821q26.1-33.937,26.106-78.341,0-23.5-5.221-40.476l-23.5-86.175h-91.37L684.041,744l20.884,75.73H545.681q-40.473,0-66.569-22.2Q454.3,779.267,446.48,744L295.068,181.257H455.617a110.994,110.994,0,0,1,63.959,19.585q24.78,18.3,35.242,56.144h0Zm154.023,575.8a62.86,62.86,0,0,1,1.3,14.363q0,23.5-15.663,39.17t-43.074,15.668H524.8q-56.138,0-100.506-35.253-37.874-30.021-52.211-82.258L208.92,173.423a141.71,141.71,0,0,1-5.221-39.171q0-37.854,23.495-70.506,32.612-45.689,100.506-45.7H496.081q74.4,0,130.528,43.087,56.106,41.8,74.4,114.9l19.58,73.118h-69.18L640.967,213.9q-16.978-60.042-60.043-94.009Q533.934,85.952,475.2,85.942H349.89q-35.243,0-54.169,17.627t-18.927,47.657q0,10.466,3.916,26.114L433.428,746.616q10.431,39.17,37.853,61.366,28.695,24.819,74.4,24.808h163.16Zm-349.814-45.7q14.348,54.838,57.432,90.091,49.59,37.886,108.338,37.865H651.409q32.611,0,52.211-18.932Q723.2,877.2,723.2,847.153a116.992,116.992,0,0,0-2.61-22.2L699.7,751.838h71.79l19.58,75.73a152.089,152.089,0,0,1,5.221,39.17q0,39.171-19.579,67.895-40.475,48.321-103.117,48.31H505.218q-74.4,0-130.528-43.087-56.137-40.455-75.706-114.9L146.267,254.375q-5.232-23.5-5.222-39.171,0-37.854,23.5-70.506l28.717-36.559q-2.631,18.3-2.611,26.113a171.322,171.322,0,0,0,5.221,41.782ZM638.356,254.375L586.145,322.27l-18.274-67.895q-11.747-43.087-40.463-63.979-30.042-22.185-71.791-22.2H292.458c-1.754-3.468-2.611-9.14-2.611-16.974q0-52.206,60.043-52.227H475.2q53.505,0,97.895,31.336,40.443,31.336,54.822,86.175ZM858.948,784.48q0,37.885-23.5,70.507l-28.716,37.865a164.814,164.814,0,0,0,2.611-26.114,162.241,162.241,0,0,0-5.222-41.782l-20.884-78.34,52.211-66.59,18.274,66.59a129.04,129.04,0,0,1,5.221,37.864h0ZM826.316,670.886L772.8,738.781H704.925l53.517-67.895h67.874ZM648.8,262.209h67.875L663.156,330.1H596.587Z" transform="translate(-128 -5)"/>
</svg>
