<svg 
 xmlns="http://www.w3.org/2000/svg"
 xmlns:xlink="http://www.w3.org/1999/xlink"
 width="26.67cm" height="35.278cm">
<path fill-rule="evenodd"  stroke-width="6px" stroke="rgb(72, 72, 72)" fill="rgb(72, 72, 72)"
 d="M432.082,259.680 L455.261,344.725 L545.402,344.725 L612.364,259.680 L589.185,177.213 C573.732,124.826 547.535,84.438 510.633,56.089 C472.001,26.030 426.488,10.990 374.134,10.990 L208.016,10.990 C159.927,10.990 123.448,27.741 98.559,61.244 L36.747,141.134 C19.564,163.482 10.993,189.253 10.993,218.447 C10.993,230.487 12.703,244.218 16.144,259.680 L166.809,822.777 C180.531,874.319 207.151,914.707 246.648,943.901 C285.280,973.981 330.773,989.000 383.148,989.000 L549.265,989.000 C594.759,989.000 631.238,972.249 658.723,938.747 L719.246,857.568 C736.409,835.240 745.001,809.469 745.001,780.255 C745.001,764.792 743.270,751.484 739.850,740.310 L716.671,655.266 L626.529,655.266 L559.567,740.310 L580.171,815.046 L423.067,815.046 C396.448,815.046 374.556,807.757 357.393,793.140 C341.075,781.121 330.351,763.504 325.200,740.310 L175.823,184.945 L334.214,184.945 C357.393,184.945 378.419,191.387 397.313,204.273 C413.611,216.313 425.200,234.775 432.082,259.680 L432.082,259.680 ZM584.034,827.931 C584.879,831.374 585.322,836.106 585.322,842.105 C585.322,857.568 580.171,870.454 569.869,880.762 C559.567,891.070 545.402,896.225 527.374,896.225 L402.464,896.225 C365.542,896.225 332.483,884.628 303.308,861.434 C278.399,841.683 261.236,814.623 251.799,780.255 L90.832,177.213 C87.392,165.193 85.681,152.308 85.681,138.557 C85.681,113.651 93.408,90.458 108.861,68.975 C130.309,38.916 163.368,23.876 208.016,23.876 L374.134,23.876 C423.067,23.876 465.985,38.050 502.907,66.398 C539.809,93.900 564.275,131.691 576.308,179.790 L595.624,251.949 L527.374,251.949 L517.072,217.158 C505.905,177.656 486.166,146.731 457.836,124.383 C426.931,102.054 392.162,90.880 353.530,90.880 L229.907,90.880 C206.728,90.880 188.901,96.679 176.467,108.276 C164.012,119.873 157.794,135.557 157.794,155.308 C157.794,162.194 159.082,170.770 161.658,181.079 L312.322,742.887 C319.184,768.658 331.638,788.852 349.667,803.449 C368.540,819.777 393.007,827.931 423.067,827.931 L584.034,827.931 ZM238.922,782.832 C248.358,818.911 267.252,848.548 295.582,871.742 C328.198,896.667 363.832,909.110 402.464,909.110 L527.374,909.110 C548.823,909.110 566.006,902.889 578.883,890.426 C591.761,877.983 598.199,861.877 598.199,842.105 C598.199,836.106 597.334,828.797 595.624,820.200 L575.020,748.041 L645.845,748.041 L665.161,822.777 C668.582,835.663 670.312,848.548 670.312,861.434 C670.312,887.205 663.874,909.553 650.996,928.438 C624.376,960.229 590.473,976.115 549.265,976.115 L383.148,976.115 C334.214,976.115 291.276,961.941 254.374,933.592 C217.453,906.976 192.563,869.165 179.686,820.200 L29.021,257.103 C25.580,241.641 23.870,228.755 23.870,218.447 C23.870,193.542 31.597,170.348 47.049,148.865 L75.379,112.786 C73.649,124.826 72.804,133.403 72.804,138.557 C72.804,152.308 74.514,166.059 77.955,179.790 L238.922,782.832 ZM514.497,257.103 L462.987,324.108 L444.959,257.103 C437.233,228.755 423.913,207.716 405.039,193.964 C385.281,179.368 361.679,172.059 334.214,172.059 L173.247,172.059 C171.517,168.636 170.672,163.039 170.672,155.308 C170.672,120.960 190.410,103.766 229.907,103.766 L353.530,103.766 C388.721,103.766 420.915,114.074 450.110,134.691 C476.710,155.308 494.738,183.656 504.195,219.735 L514.497,257.103 ZM732.123,780.255 C732.123,805.180 724.397,828.374 708.944,849.837 L680.614,887.205 C682.324,876.896 683.190,868.319 683.190,861.434 C683.190,846.837 681.459,833.086 678.039,820.200 L657.435,742.887 L708.944,677.171 L726.973,742.887 C730.393,754.061 732.123,766.524 732.123,780.255 L732.123,780.255 ZM699.930,668.151 L647.133,735.156 L580.171,735.156 L632.968,668.151 L699.930,668.151 ZM524.798,264.835 L591.761,264.835 L538.963,331.839 L473.289,331.839 L524.798,264.835 Z"/>
</svg>