<svg width="60" height="51" viewBox="0 0 60 51" fill="none" xmlns="http://www.w3.org/2000/svg">
<path d="M58.7509 12.102C58.1623 11.5133 57.5082 11.1862 56.9847 10.99V7.5883C56.9847 5.56041 55.3495 3.92498 53.3868 3.92498H28.1361L24.7344 0.784997C24.2765 0.327082 23.5569 0 22.8374 0H6.54864C4.52075 0 2.95075 1.63541 2.95075 3.66332V10.8592C2.29659 11.1208 1.70784 11.5133 1.18451 11.9712C0.334091 12.887 -0.0584075 13.9991 0.00700889 15.1112L1.24992 45.8568C1.31534 48.1466 3.27783 50.0436 5.63282 50.0436H54.368C56.7232 50.0436 58.6201 48.212 58.7509 45.8568L59.9938 15.1112C60.0592 14.13 59.6013 12.9525 58.7509 12.102ZM5.76365 10.6629V3.72875C5.76365 3.27082 6.09075 2.87832 6.54864 2.87832H22.7065L26.5661 6.27997C26.8278 6.41081 27.0895 6.60707 27.482 6.60707H53.3868C53.7794 6.60707 54.1719 6.99957 54.1719 7.45747V10.6629H5.76365ZM54.368 47.2962H5.56741C4.71699 47.2962 4.06282 46.6419 4.06282 45.8568L2.81992 15.1112C2.81992 14.6533 2.95075 14.3262 3.21242 13.9991C3.53949 13.672 3.93199 13.5412 4.38992 13.5412H55.611C56.0035 13.5412 56.4614 13.7375 56.7886 13.9991C57.0503 14.2608 57.1811 14.6533 57.1811 15.0458L55.8728 45.7915C55.8074 46.6419 55.1531 47.2962 54.368 47.2962Z" fill="#484848"/>
</svg>
