
<svg width="114px" height="99px" viewBox="0 0 114 99" version="1.1" xmlns="http://www.w3.org/2000/svg" xmlns:xlink="http://www.w3.org/1999/xlink">
    <!-- Generator: Sketch 51.1 (57501) - http://www.bohemiancoding.com/sketch -->
    <desc>Created with Sketch.</desc>
    <defs>
        <polygon id="path-1" points="40.592661 0.400983051 49.1975678 15.7309237 24.9012373 57.4618475 105.888898 57.4618475 97.7902288 72.220339 0.60490678 72.220339"></polygon>
        <polygon id="path-3" points="-8 57.4618475 0.60490678 72.220339 40.592661 1.48124576 64.8889915 44.1185339 81.0872966 44.1185339 41.0987373 -26"></polygon>
        <polygon id="path-5" points="32.5183051 44.2301186 24.8152542 57.4618475 106 57.4618475 58.1976102 -25.9130508 40.9877966 -25.9130508 80.8022966 43.7211441"></polygon>
    </defs>
    <g id="Page-1" stroke="none" stroke-width="1" fill="none" fill-rule="evenodd">
        <g id="Artboard" transform="translate(0.000000, -7.000000)">
            <g id="triangle" transform="translate(8.000000, 33.000000)">
                <mask id="mask-2" fill="white">
                    <use xlink:href="#path-1"></use>
                </mask>
                <g id="Shape"></g>
                <g id="Pink-lines" mask="url(#mask-2)" stroke="#FE51BB" stroke-linecap="square" stroke-width="0.5">
                    <g transform="translate(-17.000000, -33.000000)" id="Line">
                        <path d="M0.5,81.5 L45.0533388,126.053339"></path>
                        <path d="M0.5,86.5 L45.0533388,131.053339"></path>
                        <path d="M0.5,76.5 L45.0533388,121.053339"></path>
                        <path d="M0.5,71.5 L45.0533388,116.053339"></path>
                        <path d="M0.5,61.5 L45.0533388,106.053339"></path>
                        <path d="M0.5,51.5 L95.1070822,146.107082"></path>
                        <path d="M10.5,51.5 L105.107082,146.107082"></path>
                        <path d="M20.5,51.5 L115.107082,146.107082"></path>
                        <path d="M30.5,51.5 L125.107082,146.107082"></path>
                        <path d="M40.5,51.5 L135.107082,146.107082"></path>
                        <path d="M43.9888738,44.9888738 L145.107082,146.107082"></path>
                        <path d="M45.9896895,36.9896895 L155.107082,146.107082"></path>
                        <path d="M55.9896895,36.9896895 L165.107082,146.107082"></path>
                        <path d="M65.9896895,36.9896895 L175.107082,146.107082"></path>
                        <path d="M15.5,81.5 L60.0533388,126.053339"></path>
                        <path d="M15.5,71.5 L60.0533388,116.053339"></path>
                        <path d="M15.5,61.5 L60.0533388,106.053339"></path>
                        <path d="M15.5,51.5 L110.107082,146.107082"></path>
                        <path d="M25.5,51.5 L120.107082,146.107082"></path>
                        <path d="M35.5,51.5 L130.107082,146.107082"></path>
                        <path d="M45.5,51.5 L140.107082,146.107082"></path>
                        <path d="M46.9987877,42.9987877 L150.107082,146.107082"></path>
                        <path d="M46.495599,32.495599 L160.107082,146.107082"></path>
                        <path d="M60.9896895,36.9896895 L170.107082,146.107082"></path>
                        <path d="M70.9896895,36.9896895 L180.107082,146.107082"></path>
                        <path d="M80.9896895,36.9896895 L190.107082,146.107082"></path>
                        <path d="M8.5,49.5 L53.0533388,94.0533388"></path>
                        <path d="M8.5,54.5 L53.0533388,99.0533388"></path>
                        <path d="M8.5,44.5 L53.0533388,89.0533388"></path>
                        <path d="M8.5,39.5 L53.0533388,84.0533388"></path>
                        <path d="M8.5,29.5 L53.0533388,74.0533388"></path>
                        <path d="M8.5,19.5 L103.107082,114.107082"></path>
                        <path d="M18.5,19.5 L113.107082,114.107082"></path>
                        <path d="M28.5,19.5 L123.107082,114.107082"></path>
                        <path d="M38.5,19.5 L133.107082,114.107082"></path>
                        <path d="M48.5,19.5 L143.107082,114.107082"></path>
                        <path d="M51.9888738,12.9888738 L153.107082,114.107082"></path>
                        <path d="M53.9896895,4.98968952 L163.107082,114.107082"></path>
                        <path d="M63.9896895,4.98968952 L173.107082,114.107082"></path>
                        <path d="M73.9896895,4.98968952 L183.107082,114.107082"></path>
                        <path d="M23.5,49.5 L68.0533388,94.0533388"></path>
                        <path d="M23.5,39.5 L68.0533388,84.0533388"></path>
                        <path d="M23.5,29.5 L68.0533388,74.0533388"></path>
                        <path d="M23.5,19.5 L118.107082,114.107082"></path>
                        <path d="M33.5,19.5 L128.107082,114.107082"></path>
                        <path d="M43.5,19.5 L138.107082,114.107082"></path>
                        <path d="M53.5,19.5 L148.107082,114.107082"></path>
                        <path d="M54.9987877,10.9987877 L158.107082,114.107082"></path>
                        <path d="M54.495599,0.495598951 L168.107082,114.107082"></path>
                        <path d="M68.9896895,4.98968952 L178.107082,114.107082"></path>
                        <path d="M78.9896895,4.98968952 L188.107082,114.107082"></path>
                        <path d="M88.9896895,4.98968952 L198.107082,114.107082"></path>
                    </g>
                </g>
                <mask id="mask-4" fill="white">
                    <use xlink:href="#path-3"></use>
                </mask>
                <use id="Shape" fill="#3996F9" xlink:href="#path-3"></use>
                <mask id="mask-6" fill="white">
                    <use xlink:href="#path-5"></use>
                </mask>
                <use id="Shape" fill="#484848" xlink:href="#path-5"></use>
            </g>
        </g>
    </g>
</svg>